<?xml version="1.0" encoding="utf-8"?>
<!-- Generator: Adobe Illustrator 25.1.0, SVG Export Plug-In . SVG Version: 6.00 Build 0)  -->
<svg version="1.1" id="Layer_1" xmlns="http://www.w3.org/2000/svg" xmlns:xlink="http://www.w3.org/1999/xlink" x="0px" y="0px"
	 viewBox="0 0 1000 1000" style="enable-background:new 0 0 1000 1000;" xml:space="preserve">
<style type="text/css">
	.st0{fill:#FFDE17;}
	.st1{fill:#FFFFFF;}
</style>
<g id="Layer_1_1_">
	<circle class="st0" cx="500" cy="500" r="500"/>
</g>
<g id="Layer_3">
	<path class="st1" d="M686.2,841c-106.9,66.7-274.9,78.1-365.8-5.4c-123-113-113.6-262.7-28-384.5
		c31.6-44.9,179.4-238.5,112.9-387.9c61,27.1,108.4,132.5,128.5,190.2c17.9,51.3,54.6,202.2,33,256.6c42-24.5,91.6-93.5,50.3-199.9
		C665.8,335.2,893.8,711.5,686.2,841z"/>
</g>
<g id="Layer_2_1_">
	<path class="st0" d="M588.4,910.3H411.6l-45.3-152.6c0-99.1,59.9-179.5,133.7-179.5l0,0c73.8,0,133.7,80.3,133.7,179.5L588.4,910.3
		z"/>
	<path class="st1" d="M411.6,910.3v81.9c3.4,0,39.5,7.8,88.4,7.8s85-7.8,88.4-7.8v-81.9H411.6z"/>
</g>
</svg>
